<svg width="71" height="30" viewBox="0 0 71 30" fill="none" xmlns="http://www.w3.org/2000/svg">
<path d="M49.9374 2.65634V3.74979H59.729C60.3818 3.74979 61.361 3.74979 62.0137 4.37495C62.6665 5.0001 62.6665 5.93764 62.6665 6.56261V15.9373C62.6665 16.5626 62.6665 17.5 62.0137 18.1251C61.361 18.7501 60.3818 18.7501 59.729 18.7501H54.9964C54.1805 18.7501 53.1195 18.7501 52.7118 17.8908C52.3038 17.0313 52.8748 16.25 53.3645 15.6251L59.729 7.50034H49.9374L46.0207 12.5001C45.3646 13.3374 44.7968 14.0626 44.7968 15.0001C44.7968 15.9373 45.3255 16.6126 46.0207 17.5L47 18.7501C47.979 20 48.9582 21.2499 50.2638 21.8751C51.5693 22.5001 53.1195 22.5001 55.2412 22.5001H59.4843C61.9322 22.5001 65.6041 22.5001 68.052 20.1563C70.4999 17.8125 70.4999 14.3751 70.4999 13.125V9.37504C70.4999 8.12512 70.4999 4.68753 68.052 2.34377C65.6041 6.32326e-06 61.9322 0.00284787 59.4843 0.00209011L52.7118 6.26456e-06C52.0588 -0.000183176 51.2428 6.2781e-06 50.5901 0.62535C49.9374 1.25031 49.9374 2.03157 49.9374 2.65634Z" fill="#E21A1A"/>
<path d="M38.1875 7.49969H47.9792L36.2291 22.4998H26.4376L38.1875 7.49969Z" fill="#E21A1A"/>
<path d="M0 10.1563C0 9.53137 0 8.75011 0.652739 8.12515C1.30548 7.50018 2.12145 7.50018 2.77439 7.50018H19.1754C21.2968 7.50018 22.8472 7.50018 24.1527 8.12515C25.4582 8.75011 26.4374 9.99985 27.4166 11.2502L28.3958 12.5001C29.0909 13.3876 29.6198 14.0626 29.6198 15.0001C29.6198 15.9373 29.0517 16.6625 28.3958 17.5L24.4792 22.4999H14.6875L21.0521 14.375C21.5416 13.75 22.1128 12.9686 21.7048 12.1093C21.2968 11.2502 20.2361 11.2502 19.4201 11.2502H11.7501V30H3.91663V11.2504H0V10.1563Z" fill="#E21A1A"/>
</svg>
